<?xml version="1.0" encoding="UTF-8"?>
<svg xmlns="http://www.w3.org/2000/svg" xmlns:xlink="http://www.w3.org/1999/xlink" width="120px" height="38px" viewBox="0 0 118 38" version="1.1">
<defs>
<g>
<symbol overflow="visible" id="glyph0-0">
<path style="stroke:none;" d="M 0.890625 3.1875 L 0.890625 -12.71875 L 9.859375 -12.71875 L 9.859375 3.1875 Z M 1.90625 2.1875 L 8.859375 2.1875 L 8.859375 -11.71875 L 1.90625 -11.71875 Z M 1.90625 2.1875 "/>
</symbol>
<symbol overflow="visible" id="glyph0-1">
<path style="stroke:none;" d="M 1.640625 -13.15625 L 5.9375 -13.15625 L 8.921875 -6.109375 L 11.90625 -13.15625 L 16.1875 -13.15625 L 16.1875 0 L 13 0 L 13 -9.625 L 10 -2.53125 L 7.859375 -2.53125 L 4.84375 -9.625 L 4.84375 0 L 1.640625 0 Z M 1.640625 -13.15625 "/>
</symbol>
<symbol overflow="visible" id="glyph0-2">
<path style="stroke:none;" d="M 9.578125 -2.390625 L 4.3125 -2.390625 L 3.484375 0 L 0.09375 0 L 4.9375 -13.15625 L 8.953125 -13.15625 L 13.796875 0 L 10.40625 0 Z M 5.15625 -4.84375 L 8.734375 -4.84375 L 6.953125 -10.078125 Z M 5.15625 -4.84375 "/>
</symbol>
<symbol overflow="visible" id="glyph0-3">
<path style="stroke:none;" d="M 6.4375 -7.328125 C 7.144531 -7.328125 7.648438 -7.457031 7.953125 -7.71875 C 8.265625 -7.976562 8.421875 -8.414062 8.421875 -9.03125 C 8.421875 -9.625 8.265625 -10.050781 7.953125 -10.3125 C 7.648438 -10.570312 7.144531 -10.703125 6.4375 -10.703125 L 5.015625 -10.703125 L 5.015625 -7.328125 Z M 5.015625 -4.984375 L 5.015625 0 L 1.640625 0 L 1.640625 -13.15625 L 6.796875 -13.15625 C 8.515625 -13.15625 9.773438 -12.863281 10.578125 -12.28125 C 11.378906 -11.695312 11.78125 -10.78125 11.78125 -9.53125 C 11.78125 -8.65625 11.570312 -7.9375 11.15625 -7.375 C 10.738281 -6.820312 10.113281 -6.414062 9.28125 -6.15625 C 9.738281 -6.039062 10.148438 -5.796875 10.515625 -5.421875 C 10.878906 -5.054688 11.25 -4.492188 11.625 -3.734375 L 13.453125 0 L 9.859375 0 L 8.265625 -3.265625 C 7.941406 -3.921875 7.613281 -4.367188 7.28125 -4.609375 C 6.957031 -4.859375 6.519531 -4.984375 5.96875 -4.984375 Z M 5.015625 -4.984375 "/>
</symbol>
<symbol overflow="visible" id="glyph0-4">
<path style="stroke:none;" d="M 1.640625 -13.15625 L 5.015625 -13.15625 L 5.015625 -8.359375 L 9.875 -13.15625 L 13.796875 -13.15625 L 7.5 -6.921875 L 14.4375 0 L 10.21875 0 L 5.015625 -5.1875 L 5.015625 0 L 1.640625 0 Z M 1.640625 -13.15625 "/>
</symbol>
</g>
</defs>
<g id="surface1">
<path style=" stroke:none;fill-rule:nonzero;fill:rgb(38.82353%,40.000001%,94.509804%);fill-opacity:1;" d="M 5.664062 4.75 L 22.65625 4.75 C 25.785156 4.75 28.320312 7.300781 28.320312 10.449219 L 28.320312 27.550781 C 28.320312 30.699219 25.785156 33.25 22.65625 33.25 L 5.664062 33.25 C 2.535156 33.25 0 30.699219 0 27.550781 L 0 10.449219 C 0 7.300781 2.535156 4.75 5.664062 4.75 Z M 5.664062 4.75 "/>
<path style="fill:none;stroke-width:4.5;stroke-linecap:round;stroke-linejoin:round;stroke:rgb(100%,100%,100%);stroke-opacity:1;stroke-miterlimit:4;" d="M 15.997418 46.003289 L 15.997418 28.001645 L 27.99755 40 L 39.997683 28.001645 L 39.997683 46.003289 " transform="matrix(0.472,0,0,0.475,0,0)"/>
<path style=" stroke:none;fill-rule:nonzero;fill:rgb(100%,100%,100%);fill-opacity:1;" d="M 24.070312 21.851562 C 24.070312 21.0625 23.4375 20.425781 22.65625 20.425781 C 21.875 20.425781 21.238281 21.0625 21.238281 21.851562 C 21.238281 22.636719 21.875 23.273438 22.65625 23.273438 C 23.4375 23.273438 24.070312 22.636719 24.070312 21.851562 Z M 24.070312 21.851562 "/>
<g style="fill:rgb(3.921569%,3.921569%,3.921569%);fill-opacity:1;">
  <use xlink:href="#glyph0-1" x="35.871094" y="24.699731"/>
  <use xlink:href="#glyph0-2" x="53.002297" y="24.699731"/>
  <use xlink:href="#glyph0-3" x="66.166211" y="24.699731"/>
  <use xlink:href="#glyph0-4" x="79.260063" y="24.699731"/>
  <use xlink:href="#glyph0-2" x="92.441492" y="24.699731"/>
</g>
</g>
</svg>
